<?xml version="1.0" encoding="UTF-8" standalone="no" ?>
<!DOCTYPE svg PUBLIC "-//W3C//DTD SVG 1.1//EN" "http://www.w3.org/Graphics/SVG/1.1/DTD/svg11.dtd">
<svg xmlns="http://www.w3.org/2000/svg" xmlns:xlink="http://www.w3.org/1999/xlink" version="1.1" width="700" height="440" viewBox="0 0 700 440" xml:space="preserve">
<desc>Sdelano: LOGOZA.RU</desc>
<defs>

                <style type="text/css">
                    @import url(http://fonts.googleapis.com/css?family=Aladin:100,100i,200,200i,300,300i,400,400i,500,500i,600,600i,700,700i,800,800i,900,900i)
                </style>
            
                <style type="text/css">
                    @import url(http://fonts.googleapis.com/css?family=Aldrich:100,100i,200,200i,300,300i,400,400i,500,500i,600,600i,700,700i,800,800i,900,900i)
                </style>
            
</defs>
<rect x="0" y="0" width="100%" height="100%" fill="#ffffff"></rect>
<g transform="matrix(1 0 0 1 350 220)"  >
<g style=""   >
		<g transform="matrix(0.17 0 0 0.17 -102.3 3.17)"  >
<filter id="SVGID_8425" y="-20%" height="140%" x="-20%" width="140%" >
	<feGaussianBlur in="SourceAlpha" stdDeviation="0"></feGaussianBlur>
	<feOffset dx="0" dy="0" result="oBlur" ></feOffset>
	<feFlood flood-color="rgb(0,0,0)" flood-opacity="1"/>
	<feComposite in2="oBlur" operator="in" />
	<feMerge>
		<feMergeNode></feMergeNode>
		<feMergeNode in="SourceGraphic"></feMergeNode>
	</feMerge>
</filter>
<g style="filter: url(#SVGID_8425);"   >
		<g transform="matrix(1 0 0 1 95.58 0)" id="XMLID_439_"  >
<path style="stroke: none; stroke-width: 1; stroke-dasharray: none; stroke-linecap: butt; stroke-dashoffset: 0; stroke-linejoin: miter; stroke-miterlimit: 4; fill: rgb(147,188,62); fill-rule: nonzero; opacity: 1;"  transform=" translate(-351.58, -256)" d="M 348.1 82.5 C 276.8 116 211 178.3 196.3 258.9 c -13.5 73.5 0.7 147.4 29.1 215.8 c -7.3 -33 -19.4 -72.2 -20.4 -106 c -1.2 -44.4 5.9 -89.6 24.2 -130.2 c 19.7 -43.7 51.3 -74 92.5 -97.7 c 7.9 -4.6 16 -8.8 24.3 -12.8 c 42.8 -21 88.3 -36.6 129 -61.3 c -2.3 1.4 1.2 28.3 1.3 31.1 c 0.6 25.3 -0.3 50.7 -3.1 75.8 c -4.9 43.9 -14.6 88.3 -36 127.2 C 382.8 399.6 293 440.9 293 440.9 c 21.2 -101.6 57.7 -181.6 114.5 -268.5 c -3.9 6 -12.2 11.2 -17.2 16.5 c -6.1 6.5 -11.9 13.3 -17.4 20.4 c -60.9 78.5 -108.1 178.5 -116.7 278.2 c -0.3 3.7 -0.6 7.3 -0.8 11 c 0.1 -2.2 24.7 -8.5 27.3 -9.4 c 11.8 -4.4 23.3 -9.5 34.6 -15.2 c 74.3 -37.7 134.3 -106.5 167.6 -183.7 c 58.6 -135.9 3.7 -275.4 5.4 -276.7 C 445.3 48.2 397.4 59.3 348.1 82.5 z" stroke-linecap="round" />
</g>
		<g transform="matrix(1 0 0 1 -116.55 -24.75)" id="XMLID_913_"  >
<path style="stroke: none; stroke-width: 1; stroke-dasharray: none; stroke-linecap: butt; stroke-dashoffset: 0; stroke-linejoin: miter; stroke-miterlimit: 4; fill: rgb(5,106,56); fill-rule: nonzero; opacity: 1;"  transform=" translate(-139.45, -231.25)" d="M 139.2 209.3 c -5.5 -7.1 -11.3 -13.9 -17.4 -20.4 c -5 -5.3 -13.3 -10.5 -17.2 -16.5 c 26 39.8 47.7 78.1 65.7 117.7 c 0.8 -10.3 2.1 -20.5 4 -30.8 C 163.2 241.9 151.5 225.1 139.2 209.3 z" stroke-linecap="round" />
</g>
		<g transform="matrix(1 0 0 1 -133.38 -12.4)" id="XMLID_917_"  >
<path style="stroke: none; stroke-width: 1; stroke-dasharray: none; stroke-linecap: butt; stroke-dashoffset: 0; stroke-linejoin: miter; stroke-miterlimit: 4; fill: rgb(5,106,56); fill-rule: nonzero; opacity: 1;"  transform=" translate(-122.62, -243.6)" d="M 194.8 473.9 c -9.3 -23 -10.4 -53.6 -10.4 -53.6 c -31.1 -21.3 -76.7 -60 -109.5 -119.7 c -21.4 -38.9 -31.2 -83.3 -36 -127.2 c -2.8 -25.2 -3.7 -50.5 -3.1 -75.8 c 0.1 -2.8 3.6 -29.7 1.3 -31.1 c 40.7 24.7 86.2 40.3 129 61.3 c 8.2 4 16.3 8.3 24.3 12.8 c 11.2 6.4 21.6 13.3 31.3 20.8 c 7.3 -8.7 15.1 -16.9 23.4 -24.7 c -24.1 -22.4 -52.1 -40.8 -81.1 -54.4 c -49.3 -23.2 -97.2 -34.3 -142.1 -69 c 1.7 1.3 -53.3 140.8 5.4 276.7 C 60.5 367.4 120.4 436.2 194.8 473.9 L 194.8 473.9 z" stroke-linecap="round" />
</g>
</g>
</g>
		<g transform="matrix(1 0 0 1 48.52 -4.33)" style="filter: url(#SVGID_8426);"  >
<filter id="SVGID_8426" y="-20%" height="140%" x="-20%" width="140%" >
	<feGaussianBlur in="SourceAlpha" stdDeviation="0"></feGaussianBlur>
	<feOffset dx="0" dy="0" result="oBlur" ></feOffset>
	<feFlood flood-color="rgb(0,0,0)" flood-opacity="1"/>
	<feComposite in2="oBlur" operator="in" />
	<feMerge>
		<feMergeNode></feMergeNode>
		<feMergeNode in="SourceGraphic"></feMergeNode>
	</feMerge>
</filter>
		<text xml:space="preserve" font-family="Aladin" font-size="80" font-style="normal" font-weight="700" style="stroke: rgb(0,0,0); stroke-width: 0; stroke-dasharray: none; stroke-linecap: butt; stroke-dashoffset: 0; stroke-linejoin: round; stroke-miterlimit: 4; fill: rgb(8,95,99); fill-rule: nonzero; opacity: 1; white-space: pre;" paint-order="stroke"  ><tspan x="-97.28" y="25.13" >Ferteco</tspan></text>
</g>
		<g transform="matrix(1 0 0 1 48.44 37.67)" style="filter: url(#SVGID_8427);"  >
<filter id="SVGID_8427" y="-20%" height="140%" x="-20%" width="140%" >
	<feGaussianBlur in="SourceAlpha" stdDeviation="0"></feGaussianBlur>
	<feOffset dx="0" dy="0" result="oBlur" ></feOffset>
	<feFlood flood-color="rgb(0,0,0)" flood-opacity="1"/>
	<feComposite in2="oBlur" operator="in" />
	<feMerge>
		<feMergeNode></feMergeNode>
		<feMergeNode in="SourceGraphic"></feMergeNode>
	</feMerge>
</filter>
		<text xml:space="preserve" font-family="Aldrich" font-size="21" font-style="normal" font-weight="400" style="stroke: rgb(0,0,0); stroke-width: 0; stroke-dasharray: none; stroke-linecap: butt; stroke-dashoffset: 0; stroke-linejoin: round; stroke-miterlimit: 4; fill: rgb(8,95,99); fill-rule: nonzero; opacity: 1; white-space: pre;" paint-order="stroke"  ><tspan x="-97.36" y="6.6" >organic fertilizers</tspan></text>
</g>
</g>
</g>
</svg>